Coordinates
version=1
nRows=37
nColumns=38
inDegrees=no

Units are S.I. units (second, meters, Newtons, ...)
If the header above contains a line with 'inDegrees', this indicates whether rotational values are in degrees (yes) or radians (no).

endheader
time	pelvis_tilt	pelvis_list	pelvis_rotation	pelvis_tx	pelvis_ty	pelvis_tz	hip_flexion_r	hip_adduction_r	hip_rotation_r	knee_angle_r	ankle_angle_r	subtalar_angle_r	mtp_angle_r	hip_flexion_l	hip_adduction_l	hip_rotation_l	knee_angle_l	ankle_angle_l	subtalar_angle_l	mtp_angle_l	lumbar_extension	lumbar_bending	lumbar_rotation	arm_flex_r	arm_add_r	arm_rot_r	elbow_flex_r	pro_sup_r	wrist_flex_r	wrist_dev_r	arm_flex_l	arm_add_l	arm_rot_l	elbow_flex_l	pro_sup_l	wrist_flex_l	wrist_dev_l
0.49	-2.74148	1.42762	-2.02746	0.64623	-0.0042824	0.907262	-0.346561	-0.0909169	-0.117782	0.457497	0.219495	0	0	0.299761	0.0438429	-0.265929	0.357535	0.0278054	0	0	-0.283983	-0.191966	-0.0403435	-0.164184	-0.218105	0.122334	0.495781	0.846004	0	0	-0.0923097	-0.425048	0.0904973	0.615186	1.24915	0	0
0.5	-2.7266	1.42661	-2.03816	0.644927	0.00845957	0.908189	-0.327799	-0.0995445	-0.123266	0.513507	0.182506	0	0	0.299613	0.0481955	-0.259165	0.385173	0.0370378	0	0	-0.280918	-0.195132	-0.0368567	-0.170703	-0.218026	0.123777	0.497536	0.839502	0	0	-0.0938915	-0.423887	0.0890625	0.617103	1.24738	0	0
0.51	-2.70294	1.42527	-2.05643	0.643305	0.0212386	0.90935	-0.304471	-0.111686	-0.13136	0.574874	0.131908	0	0	0.290962	0.0576181	-0.249861	0.394862	0.0428062	0	0	-0.277198	-0.198729	-0.0357492	-0.176286	-0.218661	0.130948	0.498213	0.825165	0	0	-0.0970987	-0.422884	0.0887824	0.620125	1.24232	0	0
0.52	-2.6753	1.42355	-2.07817	0.641438	0.0339672	0.910657	-0.277463	-0.126505	-0.139139	0.63976	0.0710289	0	0	0.274721	0.0706279	-0.238896	0.388949	0.0457691	0	0	-0.27316	-0.202278	-0.0363613	-0.180929	-0.21924	0.138779	0.497926	0.80786	0	0	-0.101673	-0.421944	0.0891571	0.624824	1.23487	0	0
0.53	-2.6474	1.42258	-2.10006	0.639449	0.0465894	0.911864	-0.24664	-0.142033	-0.1437	0.706536	0.00203498	0	0	0.255388	0.0843641	-0.227858	0.375231	0.0490749	0	0	-0.267913	-0.204878	-0.0381899	-0.18559	-0.219216	0.143181	0.499196	0.791161	0	0	-0.107628	-0.421217	0.090627	0.630592	1.22665	0	0
0.54	-2.61707	1.42291	-2.12482	0.637496	0.0590588	0.912784	-0.21174	-0.157338	-0.143989	0.773907	-0.0690491	0	0	0.236557	0.0973361	-0.217001	0.359347	0.049987	0	0	-0.260847	-0.206853	-0.0408677	-0.19071	-0.218313	0.141741	0.502531	0.779518	0	0	-0.115392	-0.420954	0.0915556	0.638916	1.21836	0	0
0.55	-2.57458	1.42459	-2.16296	0.63573	0.0712171	0.913256	-0.173926	-0.17198	-0.128194	0.83155	-0.140982	0	0	0.222181	0.109272	-0.208319	0.346482	0.0459758	0	0	-0.251396	-0.209772	-0.044394	-0.1956	-0.216773	0.136403	0.50714	0.774853	0	0	-0.125076	-0.421515	0.0913108	0.649613	1.21224	0	0
0.56	-2.5559	1.42316	-2.17728	0.634189	0.0831896	0.914325	-0.134628	-0.185232	-0.132735	0.906176	-0.19763	0	0	0.204708	0.117955	-0.200443	0.3379	0.0456185	0	0	-0.247267	-0.211581	-0.0497124	-0.199401	-0.214861	0.128546	0.512523	0.7732	0	0	-0.135546	-0.423052	0.0909777	0.661699	1.20678	0	0
0.57	-2.53392	1.42091	-2.19588	0.633026	0.0947015	0.915361	-0.0977822	-0.19646	-0.123937	0.967009	-0.249181	0	0	0.190486	0.124823	-0.194807	0.338199	0.0564702	0	0	-0.244511	-0.215171	-0.0559403	-0.20205	-0.212683	0.119299	0.518812	0.774594	0	0	-0.146654	-0.426501	0.090844	0.676262	1.2007	0	0
0.58	-2.53158	1.41702	-2.19477	0.63208	0.10578	0.916794	-0.0659928	-0.204094	-0.116275	1.01983	-0.282858	0	0	0.174703	0.128291	-0.191237	0.342033	0.0705137	0	0	-0.246463	-0.217689	-0.0635446	-0.202998	-0.211047	0.108603	0.525742	0.779949	0	0	-0.157083	-0.431085	0.0915118	0.692146	1.19274	0	0
0.59	-2.54936	1.41241	-2.1731	0.631194	0.116407	0.918614	-0.0381869	-0.208164	-0.109032	1.06554	-0.284179	0	0	0.156254	0.12862	-0.189127	0.344437	0.082856	0	0	-0.25275	-0.218025	-0.0718585	-0.202845	-0.209786	0.0923566	0.53369	0.795804	0	0	-0.165726	-0.43654	0.0950784	0.708958	1.17791	0	0
0.6	-2.57955	1.40922	-2.13866	0.630275	0.126607	0.920632	-0.00994497	-0.207512	-0.0989768	1.10886	-0.255028	0	0	0.136809	0.126285	-0.18716	0.343419	0.0926005	0	0	-0.260088	-0.215471	-0.0805553	-0.20049	-0.210625	0.0809497	0.539507	0.815343	0	0	-0.170153	-0.439724	0.0962901	0.717922	1.16883	0	0
0.61	-2.60978	1.40786	-2.10432	0.629375	0.1365	0.92256	0.0180438	-0.203641	-0.0787031	1.13603	-0.227658	0	0	0.117517	0.123203	-0.185731	0.338419	0.100497	0	0	-0.266351	-0.211673	-0.0897338	-0.196754	-0.213438	0.0744165	0.545011	0.832885	0	0	-0.172874	-0.441597	0.095297	0.722653	1.16797	0	0
0.62	-2.64774	1.40658	-2.06169	0.628301	0.146373	0.924666	0.0462325	-0.199858	-0.070745	1.16972	-0.189432	0	0	0.0951737	0.120024	-0.182421	0.328283	0.106949	0	0	-0.273183	-0.205939	-0.0996175	-0.192344	-0.217657	0.0696491	0.549854	0.851044	0	0	-0.173717	-0.441899	0.0935361	0.723328	1.17291	0	0
0.63	-2.69223	1.40559	-2.01245	0.627202	0.156197	0.926836	0.0720349	-0.194325	-0.0648209	1.1934	-0.161329	0	0	0.0713795	0.116321	-0.176613	0.315179	0.112584	0	0	-0.279931	-0.19843	-0.109682	-0.187428	-0.222702	0.0675531	0.554392	0.864805	0	0	-0.172869	-0.441478	0.0931447	0.720023	1.18124	0	0
0.64	-2.74233	1.40485	-1.95763	0.626108	0.165915	0.928998	0.0962018	-0.187268	-0.0604927	1.20938	-0.135989	0	0	0.047268	0.111783	-0.168569	0.300664	0.116852	0	0	-0.286366	-0.189325	-0.119713	-0.181486	-0.227938	0.0681112	0.556912	0.875163	0	0	-0.170367	-0.440721	0.0946968	0.713924	1.18995	0	0
0.65	-2.79758	1.40349	-1.89766	0.624948	0.175543	0.931201	0.120341	-0.180134	-0.0664374	1.23408	-0.0935928	0	0	0.0225173	0.106504	-0.159292	0.284964	0.119669	0	0	-0.293041	-0.178905	-0.1294	-0.174463	-0.233165	0.0706046	0.556588	0.883501	0	0	-0.165966	-0.439937	0.0996501	0.70556	1.19732	0	0
0.66	-2.85327	1.40216	-1.83771	0.623923	0.185013	0.933296	0.140276	-0.172737	-0.065295	1.24043	-0.0612137	0	0	-0.00110945	0.100301	-0.149826	0.269648	0.122137	0	0	-0.299003	-0.168142	-0.138308	-0.166104	-0.237586	0.0737873	0.55289	0.890375	0	0	-0.159997	-0.439959	0.108537	0.696073	1.20202	0	0
0.67	-2.90257	1.4013	-1.78511	0.623243	0.19443	0.935114	0.162788	-0.163165	-0.0633303	1.23839	-0.0442431	0	0	-0.0228115	0.0939399	-0.141053	0.255413	0.124994	0	0	-0.303173	-0.158661	-0.146084	-0.157408	-0.240777	0.0773296	0.546851	0.896849	0	0	-0.153389	-0.441366	0.120605	0.686685	1.20323	0	0
0.68	-2.95097	1.39984	-1.7336	0.622685	0.203781	0.936891	0.182654	-0.155211	-0.0630653	1.23185	-0.0254862	0	0	-0.0448044	0.0871956	-0.132173	0.240844	0.127518	0	0	-0.307244	-0.149363	-0.153009	-0.149208	-0.243451	0.0817943	0.53982	0.903003	0	0	-0.145106	-0.443105	0.135029	0.676337	1.20216	0	0
0.69	-2.99536	1.39836	-1.68595	0.622266	0.213095	0.938494	0.201173	-0.147943	-0.0644866	1.21992	-0.00821382	0	0	-0.0659439	0.0801672	-0.124344	0.226945	0.130186	0	0	-0.310877	-0.140739	-0.15926	-0.142498	-0.245374	0.0853807	0.533448	0.908543	0	0	-0.135599	-0.445764	0.152445	0.665705	1.20055	0	0
0.7	-3.03553	1.39677	-1.64226	0.621945	0.222389	0.939929	0.218192	-0.141857	-0.0675845	1.20319	0.00969136	0	0	-0.0864486	0.0732335	-0.116718	0.213712	0.133009	0	0	-0.314389	-0.132794	-0.164688	-0.137922	-0.246808	0.0877094	0.529008	0.913021	0	0	-0.125264	-0.449209	0.171333	0.656661	1.1987	0	0
0.71	-3.07231	1.39521	-1.60178	0.621717	0.231607	0.941209	0.233543	-0.1364	-0.0715166	1.18152	0.0286159	0	0	-0.10638	0.0664107	-0.109157	0.200628	0.135876	0	0	-0.317623	-0.125394	-0.168959	-0.135555	-0.247724	0.0884724	0.526657	0.917145	0	0	-0.113657	-0.453427	0.192599	0.649104	1.19603	0	0
0.72	-3.10584	1.39401	-1.56437	0.621547	0.240743	0.942302	0.2479	-0.131635	-0.0762468	1.15502	0.0466202	0	0	-0.125387	0.0598285	-0.10168	0.187576	0.138737	0	0	-0.320393	-0.118461	-0.172515	-0.135018	-0.248221	0.0876938	0.526213	0.921334	0	0	-0.10117	-0.457807	0.214287	0.64264	1.19371	0	0
0.73	-3.12995	1.39339	-1.53584	0.621544	0.249958	0.943035	0.25688	-0.124016	-0.0783753	1.11634	0.0635412	0	0	-0.143616	0.0545286	-0.0938122	0.174403	0.141727	0	0	-0.322121	-0.113548	-0.176263	-0.136389	-0.247829	0.0856338	0.527438	0.926291	0	0	-0.0893933	-0.46349	0.236247	0.63938	1.1916	0	0
0.74	3.11946	1.39182	-1.49857	0.621308	0.258726	0.943932	0.271922	-0.123772	-0.0876528	1.08721	0.0735139	0	0	-0.162197	0.0478293	-0.0863614	0.161032	0.143196	0	0	-0.32577	-0.106134	-0.178088	-0.137168	-0.248116	0.0823314	0.529499	0.930509	0	0	-0.0746355	-0.466223	0.254279	0.634482	1.19403	0	0
0.75	3.0963	1.39106	-1.47179	0.621255	0.26766	0.944419	0.281641	-0.121242	-0.0946068	1.04689	0.0810194	0	0	-0.179713	0.0426494	-0.0801756	0.148296	0.144969	0	0	-0.32815	-0.101068	-0.180117	-0.139466	-0.247321	0.0777792	0.53305	0.934707	0	0	-0.0611643	-0.469353	0.268476	0.632067	1.19978	0	0
0.76	3.07459	1.39177	-1.4467	0.621362	0.276414	0.94458	0.287695	-0.117551	-0.0903064	0.983756	0.0694071	0	0	-0.194077	0.037401	-0.0767296	0.138202	0.148305	0	0	-0.329077	-0.0967889	-0.182234	-0.141197	-0.245988	0.0749667	0.536365	0.935639	0	0	-0.0482454	-0.471983	0.277828	0.630271	1.20606	0	0
0.77	3.06259	1.39082	-1.43022	0.621211	0.285383	0.944687	0.2983	-0.120118	-0.114372	0.957474	0.0863901	0	0	-0.21324	0.0344248	-0.0671585	0.12243	0.148773	0	0	-0.331811	-0.0934621	-0.185953	-0.143826	-0.244699	0.0699071	0.541249	0.940201	0	0	-0.0362284	-0.473845	0.283616	0.62837	1.22764	0	0
0.78	3.05126	1.39158	-1.41467	0.621317	0.294265	0.94447	0.305239	-0.120944	-0.12688	0.90962	0.0899906	0	0	-0.228635	0.0310517	-0.0607071	0.110601	0.151599	0	0	-0.332941	-0.0909815	-0.190603	-0.144756	-0.242786	0.0673407	0.543483	0.945291	0	0	-0.0264865	-0.475947	0.283998	0.629577	1.24498	0	0
0.79	3.04279	1.39318	-1.40165	0.621513	0.303141	0.94401	0.31162	-0.122445	-0.141437	0.860524	0.0953704	0	0	-0.241923	0.0277933	-0.0554385	0.101339	0.155583	0	0	-0.333321	-0.0892732	-0.19605	-0.145181	-0.240481	0.067298	0.5449	0.949787	0	0	-0.0176772	-0.477733	0.280156	0.631813	1.26392	0	0
0.8	3.03658	1.3955	-1.39077	0.621825	0.312044	0.943331	0.317396	-0.12439	-0.157938	0.809508	0.0995043	0	0	-0.25318	0.0246627	-0.0514096	0.0947189	0.160946	0	0	-0.333082	-0.0882167	-0.201998	-0.145163	-0.23789	0.0685886	0.545146	0.953982	0	0	-0.00973102	-0.47935	0.27288	0.634738	1.28407	0	0
0.81	3.03285	1.39818	-1.3826	0.622295	0.32101	0.942459	0.322424	-0.126503	-0.175567	0.757723	0.102021	0	0	-0.263251	0.0218443	-0.0479478	0.0899643	0.167349	0	0	-0.332496	-0.0879072	-0.208057	-0.144811	-0.23506	0.0705638	0.544808	0.956893	0	0	-0.00267829	-0.481274	0.264777	0.638652	1.3034	0	0
0.82	3.03052	1.40109	-1.37641	0.622929	0.330021	0.941422	0.326944	-0.128219	-0.193582	0.705413	0.103986	0	0	-0.272582	0.0192829	-0.0450139	0.0864796	0.174566	0	0	-0.331744	-0.0881845	-0.213535	-0.144195	-0.232169	0.0723062	0.543773	0.960165	0	0	0.00395454	-0.483584	0.257455	0.643655	1.31905	0	0
0.83	3.02955	1.40421	-1.3722	0.623709	0.339034	0.940227	0.331154	-0.12912	-0.210075	0.653039	0.107216	0	0	-0.28129	0.0170156	-0.0424776	0.0839838	0.182322	0	0	-0.330933	-0.0889063	-0.218152	-0.143614	-0.229295	0.0740252	0.543193	0.961542	0	0	0.0104131	-0.485942	0.250775	0.649687	1.32904	0	0
0.84	3.02865	1.40744	-1.3689	0.624647	0.348066	0.938868	0.334252	-0.128293	-0.22406	0.599392	0.113096	0	0	-0.289613	0.0147864	-0.0412177	0.0822265	0.190708	0	0	-0.330042	-0.0898199	-0.221389	-0.143425	-0.226635	0.0770451	0.543088	0.961671	0	0	0.0171831	-0.48838	0.245854	0.656234	1.33348	0	0
0.85	3.02758	1.41078	-1.36656	0.625754	0.357101	0.937377	0.336508	-0.125855	-0.235802	0.545133	0.119767	0	0	-0.297795	0.0126669	-0.0410853	0.0806966	0.198888	0	0	-0.329022	-0.0909361	-0.22328	-0.143164	-0.224213	0.0813569	0.542333	0.962561	0	0	0.0239299	-0.490407	0.240989	0.662816	1.33585	0	0
